<svg xmlns="http://www.w3.org/2000/svg" viewBox="0 0 72.00 84.00" width="72.00" height="84.00" role="img" aria-label="TechBack monogram">
    <title>TechBack monogram</title>
    <rect x="24.700" y="0.700" width="10.600" height="10.600" fill="#0d0d0c"/>
    <rect x="36.700" y="0.700" width="10.600" height="10.600" fill="#0d0d0c"/>
    <rect x="24.700" y="12.700" width="10.600" height="10.600" fill="#0d0d0c"/>
    <rect x="36.700" y="12.700" width="10.600" height="10.600" fill="#0d0d0c"/>
    <rect x="0.700" y="24.700" width="10.600" height="10.600" fill="#0d0d0c"/>
    <rect x="12.700" y="24.700" width="10.600" height="10.600" fill="#0d0d0c"/>
    <rect x="24.700" y="24.700" width="10.600" height="10.600" fill="#0d0d0c"/>
    <rect x="36.700" y="24.700" width="10.600" height="10.600" fill="#0d0d0c"/>
    <rect x="48.700" y="24.700" width="10.600" height="10.600" fill="#0d0d0c"/>
    <rect x="60.700" y="24.700" width="10.600" height="10.600" fill="#0d0d0c"/>
    <rect x="24.700" y="36.700" width="10.600" height="10.600" fill="#0d0d0c"/>
    <rect x="36.700" y="36.700" width="10.600" height="10.600" fill="#0d0d0c"/>
    <rect x="24.700" y="48.700" width="10.600" height="10.600" fill="#0d0d0c"/>
    <rect x="36.700" y="48.700" width="10.600" height="10.600" fill="#0d0d0c"/>
    <rect x="24.700" y="60.700" width="10.600" height="10.600" fill="#0d0d0c"/>
    <rect x="36.700" y="60.700" width="10.600" height="10.600" fill="#0d0d0c"/>
    <rect x="24.700" y="72.700" width="10.600" height="10.600" fill="#0d0d0c"/>
    <rect x="36.700" y="72.700" width="10.600" height="10.600" fill="#0d0d0c"/>
    <rect x="48.700" y="72.700" width="10.600" height="10.600" fill="#0d0d0c"/>
    <rect x="60.700" y="72.700" width="10.600" height="10.600" fill="#0d0d0c"/>
</svg>
